<svg width="1703" height="1192" xmlns="http://www.w3.org/2000/svg" xmlns:xlink="http://www.w3.org/1999/xlink" overflow="hidden"><defs><clipPath id="clip0"><rect x="82" y="533" width="1703" height="1192"/></clipPath></defs><g clip-path="url(#clip0)" transform="translate(-82 -533)"><rect x="257.5" y="682.5" width="1371" height="1041" stroke="#000000" stroke-width="3.4375" stroke-linecap="round" stroke-linejoin="round" stroke-miterlimit="10" fill="none"/><text font-family="Arial,Arial_MSFontService,sans-serif" font-weight="700" font-size="83" transform="matrix(1 0 0 1 269.908 775)">Main</text><path d="M0.00321521-1.71875 122.964-1.48873 122.957 1.94877-0.00321521 1.71875ZM96.3593-17.3461 126.372 0.236399 96.2938 17.7065C95.4729 18.1832 94.421 17.9043 93.9443 17.0835 93.4675 16.2626 93.7464 15.2107 94.5673 14.734L122.097-1.25622 122.092 1.71302 94.6217-14.3801C93.8027-14.8599 93.5277-15.9128 94.0075-16.7319 94.4874-17.5509 95.5403-17.8259 96.3593-17.3461Z" transform="matrix(1 0 0 -1 1375.5 1202.74)"/><rect x="622.5" y="968.5" width="604" height="467" stroke="#000000" stroke-width="3.4375" stroke-linecap="round" stroke-linejoin="round" stroke-miterlimit="10" fill="none"/><text font-family="Arial,Arial_MSFontService,sans-serif" font-weight="400" font-size="73" transform="matrix(1 0 0 1 848.483 1185)">Sum<tspan font-size="73" x="-71.3167" y="88">sumCom</tspan></text><rect x="82.9998" y="1060" width="263" height="78" fill="#FFFFFF"/><path d="M81.854 1058.85 347.146 1058.85 347.146 1139.15 81.854 1139.15ZM84.1457 1138 82.9998 1136.85 346 1136.85 344.854 1138 344.854 1060 346 1061.15 82.9998 1061.15 84.1457 1060Z"/><text font-family="Consolas,Consolas_MSFontService,sans-serif" font-weight="400" font-size="55" transform="matrix(1 0 0 1 123.668 1118)">inPort</text><path d="M144.633 110 150.707 85.7067 175 79.6333 144.633 110 0 110 0 0 175 0 175 79.6333" stroke="#000000" stroke-width="3.4375" stroke-linejoin="round" stroke-miterlimit="10" fill="none" fill-rule="evenodd" transform="matrix(1 0 0 -1 1453.5 652.5)"/><text font-family="Arial,Arial_MSFontService,sans-serif" font-weight="400" font-size="73" transform="matrix(1 -2.44929e-16 2.44929e-16 1 1485.47 627)">MA</text><path d="M346.5 1097.78 422.782 1097.78 422.782 1315.02 421.063 1313.3 492.224 1313.3 492.224 1316.74 419.345 1316.74 419.345 1099.5 421.063 1101.22 346.5 1101.22ZM465.589 1297.5 495.634 1315.02 465.589 1332.55C464.769 1333.03 463.717 1332.75 463.239 1331.93 462.76 1331.11 463.037 1330.06 463.857 1329.58L491.357 1313.54 491.357 1316.51 463.857 1300.47C463.037 1299.99 462.76 1298.94 463.239 1298.12 463.717 1297.3 464.769 1297.02 465.589 1297.5Z"/><rect x="496" y="1276" width="247" height="78" fill="#FFFFFF"/><path d="M494.854 1274.85 744.146 1274.85 744.146 1355.15 494.854 1355.15ZM497.146 1354 496 1352.85 743 1352.85 741.854 1354 741.854 1276 743 1277.15 496 1277.15 497.146 1276Z"/><text font-family="Arial,Arial_MSFontService,sans-serif" font-weight="400" font-size="55" transform="matrix(1 0 0 1 531.05 1335)">second</text><rect x="496" y="1060" width="247" height="78" fill="#FFFFFF"/><path d="M494.854 1058.85 744.146 1058.85 744.146 1139.15 494.854 1139.15ZM497.146 1138 496 1136.85 743 1136.85 741.854 1138 741.854 1060 743 1061.15 496 1061.15 497.146 1060Z"/><text font-family="Arial,Arial_MSFontService,sans-serif" font-weight="400" font-size="55" transform="matrix(1 0 0 1 574.878 1119)">first</text><rect x="1501" y="1163" width="283" height="78" fill="#FFFFFF"/><path d="M1499.85 1161.85 1785.15 1161.85 1785.15 1242.15 1499.85 1242.15ZM1502.15 1241 1501 1239.85 1784 1239.85 1782.85 1241 1782.85 1163 1784 1164.15 1501 1164.15 1502.15 1163Z"/><text font-family="Consolas,Consolas_MSFontService,sans-serif" font-weight="400" font-size="55" transform="matrix(1 0 0 1 1536.08 1221)">outPort</text><path d="M0-1.71875 76.282-1.71875 76.282 0.391207 74.5633-1.32754 145.724-1.32754 145.724 2.10996 72.8445 2.10996 72.8445 0 74.5633 1.71875 0 1.71875ZM119.089-17.1351 149.134 0.391207 119.089 17.9175C118.269 18.3958 117.217 18.1188 116.739 17.2989 116.26 16.479 116.537 15.4265 117.357 14.9483L144.857-1.09341 144.857 1.87583 117.357-14.1658C116.537-14.6441 116.26-15.6966 116.739-16.5165 117.217-17.3364 118.269-17.6134 119.089-17.1351Z" transform="matrix(1 0 0 -1 346.5 1099.89)"/><rect x="1093" y="1163" width="282" height="78" fill="#FFFFFF"/><path d="M1091.85 1161.85 1376.15 1161.85 1376.15 1242.15 1091.85 1242.15ZM1094.15 1241 1093 1239.85 1375 1239.85 1373.85 1241 1373.85 1163 1375 1164.15 1093 1164.15 1094.15 1163Z"/><text font-family="Consolas,Consolas_MSFontService,sans-serif" font-weight="400" font-size="55" transform="matrix(1 0 0 1 1127.41 1221)">outPort</text></g></svg>