<svg width="1602" height="1089" xmlns="http://www.w3.org/2000/svg" xmlns:xlink="http://www.w3.org/1999/xlink" overflow="hidden"><defs><clipPath id="clip0"><rect x="2366" y="534" width="1602" height="1089"/></clipPath></defs><g clip-path="url(#clip0)" transform="translate(-2366 -534)"><path d="M155.633 110 161.707 85.7067 186 79.6334 155.633 110 0 110 0 0 186 0 186 79.6334" stroke="#000000" stroke-width="3.4375" stroke-linejoin="round" stroke-miterlimit="10" fill="none" fill-rule="evenodd" transform="matrix(1 0 0 -1 3735.5 653.5)"/><text font-family="Arial,Arial_MSFontService,sans-serif" font-weight="400" font-size="73" transform="matrix(1 -2.44929e-16 2.44929e-16 1 3779.01 628)">TD</text><rect x="2580.5" y="719.5" width="449" height="153" stroke="#000000" stroke-width="3.4375" stroke-miterlimit="8" fill="none"/><text font-family="Arial,Arial_MSFontService,sans-serif" font-weight="400" font-size="83" transform="matrix(1 0 0 1 2704.08 826)">:Main</text><path d="M2704.56 834.086 2771.56 834.086 2838.56 834.086 2905.56 834.086 2905.56 838.086 2838.56 838.086 2771.56 838.086 2704.56 838.086Z" fill-rule="evenodd"/><path d="M0 0 4.00013 731" stroke="#000000" stroke-width="3.4375" stroke-linejoin="round" stroke-miterlimit="10" stroke-dasharray="13.75 10.3125" fill="none" fill-rule="evenodd" transform="matrix(-1 0 0 1 2800.5 872.5)"/><path d="M0 0 1.9997 749" stroke="#000000" stroke-width="3.4375" stroke-linejoin="round" stroke-miterlimit="10" stroke-dasharray="13.75 10.3125" fill="none" fill-rule="evenodd" transform="matrix(-1 0 0 1 3663.5 872.5)"/><path d="M2795.5 1077.78 3654.09 1077.78 3654.09 1081.22 2795.5 1081.22ZM3627.46 1061.97 3657.51 1079.5 3627.46 1097.03C3626.64 1097.5 3625.59 1097.23 3625.11 1096.41 3624.63 1095.59 3624.91 1094.54 3625.73 1094.06L3653.23 1078.02 3653.23 1080.98 3625.73 1064.94C3624.91 1064.46 3624.63 1063.41 3625.11 1062.59 3625.59 1061.77 3626.64 1061.5 3627.46 1061.97Z"/><rect x="3393.5" y="719.5" width="527" height="165" stroke="#000000" stroke-width="3.4375" stroke-miterlimit="8" fill="none"/><text font-family="Arial,Arial_MSFontService,sans-serif" font-weight="400" font-size="83" transform="matrix(1 0 0 1 3395.3 832)">sumCom:Sum</text><path d="M3394.94 839.816 3917.94 839.816 3917.94 843.816 3394.94 843.816Z" fill-rule="evenodd"/><path d="M0.00200722-1.71875 852.605-0.723044 852.601 2.71445-0.00200722 1.71875ZM825.984-16.5617 856.008 0.99968 825.943 18.4909C825.122 18.9682 824.07 18.69 823.593 17.8695 823.115 17.049 823.394 15.9969 824.214 15.5196L851.733-0.489932 851.729 2.47931 824.248-13.5945C823.429-14.0737 823.153-15.1265 823.632-15.9458 824.112-16.7652 825.164-17.0409 825.984-16.5617Z" transform="matrix(-1 0 0 1 3662.5 1321.5)"/><path d="M0.00872322-1.71873 390.602 0.263685 390.584 3.70114-0.00872322 1.71873ZM364.052-15.6788 394.008 1.99975 363.874 19.3733C363.052 19.8474 362.001 19.5652 361.527 18.7428 361.053 17.9205 361.335 16.8695 362.157 16.3953L389.738 0.493436 389.723 3.46264 362.305-12.7184C361.488-13.2008 361.216-14.2547 361.698-15.0722 362.181-15.8896 363.235-16.1613 364.052-15.6788Z" transform="matrix(1 0 0 -1 2406.5 1035.5)"/><path d="M1.52404e-06-1.71875 403.598-1.71839 403.598 1.71911-1.52404e-06 1.71875ZM376.963-17.526 407.008 0.000361288 376.963 17.5266C376.143 18.0049 375.091 17.728 374.612 16.908 374.134 16.0881 374.411 15.0357 375.231 14.5574L402.731-1.48426 402.731 1.48498 375.231-14.5567C374.411-15.035 374.134-16.0874 374.612-16.9074 375.091-17.7273 376.143-18.0042 376.963-17.526Z" transform="matrix(-1 0 0 1 2797.5 1416.5)"/><rect x="2453" y="1377" width="281" height="78" fill="#FFFFFF"/><path d="M2451.85 1375.85 2735.15 1375.85 2735.15 1456.15 2451.85 1456.15ZM2454.15 1455 2453 1453.85 2734 1453.85 2732.85 1455 2732.85 1377 2734 1378.15 2453 1378.15 2454.15 1377Z"/><text font-family="Consolas,Consolas_MSFontService,sans-serif" font-weight="400" font-size="55" transform="matrix(1 0 0 1 2487.22 1435)">outPort<tspan font-family="Arial,Arial_MSFontService,sans-serif" font-size="55" x="101.274" y="-455">12</tspan><tspan font-family="Arial,Arial_MSFontService,sans-serif" font-size="55" x="105.596" y="-67">24</tspan></text><path d="M2800.5 1187.78 3659.09 1187.78 3659.09 1191.22 2800.5 1191.22ZM3632.46 1171.97 3662.51 1189.5 3632.46 1207.03C3631.64 1207.5 3630.59 1207.23 3630.11 1206.41 3629.63 1205.59 3629.91 1204.54 3630.73 1204.06L3658.23 1188.02 3658.23 1190.98 3630.73 1174.94C3629.91 1174.46 3629.63 1173.41 3630.11 1172.59 3630.59 1171.77 3631.64 1171.5 3632.46 1171.97Z"/><rect x="3210" y="1139" width="311" height="78" fill="#FFFFFF"/><path d="M3208.85 1137.85 3522.15 1137.85 3522.15 1218.15 3208.85 1218.15ZM3211.15 1217 3210 1215.85 3521 1215.85 3519.85 1217 3519.85 1139 3521 1140.15 3210 1140.15 3211.15 1139Z"/><text font-family="Arial,Arial_MSFontService,sans-serif" font-weight="400" font-size="55" transform="matrix(1 0 0 1 3277.28 1198)">second</text><rect x="3210" y="1034" width="311" height="77" fill="#FFFFFF"/><path d="M3208.85 1032.85 3522.15 1032.85 3522.15 1112.15 3208.85 1112.15ZM3211.15 1111 3210 1109.85 3521 1109.85 3519.85 1111 3519.85 1034 3521 1035.15 3210 1035.15 3211.15 1034Z"/><text font-family="Arial,Arial_MSFontService,sans-serif" font-weight="400" font-size="55" transform="matrix(1 0 0 1 3321.11 1092)">first<tspan font-size="55" x="-356.202" y="-20">12</tspan><tspan font-size="55" x="-356.202" y="85">12</tspan></text><rect x="2874" y="1270" width="311" height="77.9996" fill="#FFFFFF"/><path d="M2872.85 1268.85 3186.15 1268.85 3186.15 1349.15 2872.85 1349.15ZM2875.15 1348 2874 1346.85 3185 1346.85 3183.85 1348 3183.85 1270 3185 1271.15 2874 1271.15 2875.15 1270Z"/><text font-family="Consolas,Consolas_MSFontService,sans-serif" font-weight="400" font-size="55" transform="matrix(1 0 0 1 2923.22 1328)">outPort<tspan font-family="Arial,Arial_MSFontService,sans-serif" font-size="55" x="460.497" y="-18">24</tspan></text><rect x="2453" y="989" width="281" height="88.0001" fill="#FFFFFF"/><path d="M2451.85 987.854 2735.15 987.854 2735.15 1078.15 2451.85 1078.15ZM2454.15 1077 2453 1075.85 2734 1075.85 2732.85 1077 2732.85 989 2734 990.146 2453 990.146 2454.15 989Z"/><text font-family="Consolas,Consolas_MSFontService,sans-serif" font-weight="400" font-size="55" transform="matrix(1 0 0 1 2502.4 1052)">inPort</text></g></svg>